<mxfile host="app.diagrams.net" modified="2024-05-15T16:29:57.422Z" agent="Mozilla/5.0 (Windows NT 10.0; Win64; x64; rv:126.0) Gecko/20100101 Firefox/126.0" etag="qz8Zoi2FXGp3qpEIZLC_" version="24.4.0" type="google" pages="3">
  <diagram name="impresion" id="LlRBKS7MbEKpEJgh919S">
    <mxGraphModel grid="1" page="1" gridSize="10" guides="1" tooltips="1" connect="1" arrows="1" fold="1" pageScale="1" pageWidth="827" pageHeight="1169" math="0" shadow="0">
      <root>
        <mxCell id="0" />
        <mxCell id="1" parent="0" />
        <mxCell id="ZWdwFOyI-Ob9fIk1LWZF-1" value="&lt;div&gt;Clase: Archivo&lt;/div&gt;&lt;div&gt;Metodo: +void: cargarDatos()&lt;br&gt;&lt;/div&gt;" style="text;html=1;align=center;verticalAlign=middle;whiteSpace=wrap;rounded=0;" vertex="1" parent="1">
          <mxGeometry x="160" y="40" width="210" height="40" as="geometry" />
        </mxCell>
        <mxCell id="ZWdwFOyI-Ob9fIk1LWZF-6" value="" style="edgeStyle=orthogonalEdgeStyle;rounded=0;orthogonalLoop=1;jettySize=auto;html=1;" edge="1" parent="1" source="ZWdwFOyI-Ob9fIk1LWZF-2" target="ZWdwFOyI-Ob9fIk1LWZF-5">
          <mxGeometry relative="1" as="geometry" />
        </mxCell>
        <mxCell id="ZWdwFOyI-Ob9fIk1LWZF-2" value="" style="ellipse;whiteSpace=wrap;html=1;" vertex="1" parent="1">
          <mxGeometry x="240" y="80" width="80" height="40" as="geometry" />
        </mxCell>
        <mxCell id="ZWdwFOyI-Ob9fIk1LWZF-8" value="" style="edgeStyle=orthogonalEdgeStyle;rounded=0;orthogonalLoop=1;jettySize=auto;html=1;" edge="1" parent="1" source="ZWdwFOyI-Ob9fIk1LWZF-5" target="ZWdwFOyI-Ob9fIk1LWZF-7">
          <mxGeometry relative="1" as="geometry" />
        </mxCell>
        <mxCell id="ZWdwFOyI-Ob9fIk1LWZF-5" value="cargarCodComp()" style="shape=process;whiteSpace=wrap;html=1;backgroundOutline=1;" vertex="1" parent="1">
          <mxGeometry x="205" y="160" width="150" height="40" as="geometry" />
        </mxCell>
        <mxCell id="ZWdwFOyI-Ob9fIk1LWZF-10" value="" style="edgeStyle=orthogonalEdgeStyle;rounded=0;orthogonalLoop=1;jettySize=auto;html=1;" edge="1" parent="1" source="ZWdwFOyI-Ob9fIk1LWZF-7" target="ZWdwFOyI-Ob9fIk1LWZF-9">
          <mxGeometry relative="1" as="geometry" />
        </mxCell>
        <mxCell id="ZWdwFOyI-Ob9fIk1LWZF-7" value="cargarNombreArch()" style="shape=process;whiteSpace=wrap;html=1;backgroundOutline=1;" vertex="1" parent="1">
          <mxGeometry x="205" y="240" width="150" height="40" as="geometry" />
        </mxCell>
        <mxCell id="ZWdwFOyI-Ob9fIk1LWZF-12" value="" style="edgeStyle=orthogonalEdgeStyle;rounded=0;orthogonalLoop=1;jettySize=auto;html=1;" edge="1" parent="1" source="ZWdwFOyI-Ob9fIk1LWZF-9" target="ZWdwFOyI-Ob9fIk1LWZF-11">
          <mxGeometry relative="1" as="geometry" />
        </mxCell>
        <mxCell id="ZWdwFOyI-Ob9fIk1LWZF-9" value="cargarImpresora()" style="shape=process;whiteSpace=wrap;html=1;backgroundOutline=1;" vertex="1" parent="1">
          <mxGeometry x="205" y="320" width="150" height="40" as="geometry" />
        </mxCell>
        <mxCell id="ZWdwFOyI-Ob9fIk1LWZF-14" value="" style="edgeStyle=orthogonalEdgeStyle;rounded=0;orthogonalLoop=1;jettySize=auto;html=1;" edge="1" parent="1" source="ZWdwFOyI-Ob9fIk1LWZF-11" target="ZWdwFOyI-Ob9fIk1LWZF-13">
          <mxGeometry relative="1" as="geometry" />
        </mxCell>
        <mxCell id="ZWdwFOyI-Ob9fIk1LWZF-11" value="tipoImpresion()" style="shape=process;whiteSpace=wrap;html=1;backgroundOutline=1;" vertex="1" parent="1">
          <mxGeometry x="205" y="400" width="150" height="40" as="geometry" />
        </mxCell>
        <mxCell id="ZWdwFOyI-Ob9fIk1LWZF-13" value="" style="ellipse;whiteSpace=wrap;html=1;" vertex="1" parent="1">
          <mxGeometry x="240" y="480" width="80" height="40" as="geometry" />
        </mxCell>
        <mxCell id="ZWdwFOyI-Ob9fIk1LWZF-15" value="&lt;div&gt;Clase: Archivo&lt;/div&gt;&lt;div&gt;Metodo: +void: tipoImpresion()&lt;br&gt;&lt;/div&gt;" style="text;html=1;align=center;verticalAlign=middle;whiteSpace=wrap;rounded=0;" vertex="1" parent="1">
          <mxGeometry x="520" y="40" width="210" height="40" as="geometry" />
        </mxCell>
        <mxCell id="ZWdwFOyI-Ob9fIk1LWZF-18" value="" style="edgeStyle=orthogonalEdgeStyle;rounded=0;orthogonalLoop=1;jettySize=auto;html=1;" edge="1" parent="1" source="ZWdwFOyI-Ob9fIk1LWZF-16" target="ZWdwFOyI-Ob9fIk1LWZF-17">
          <mxGeometry relative="1" as="geometry" />
        </mxCell>
        <mxCell id="ZWdwFOyI-Ob9fIk1LWZF-16" value="" style="ellipse;whiteSpace=wrap;html=1;" vertex="1" parent="1">
          <mxGeometry x="585" y="80" width="80" height="40" as="geometry" />
        </mxCell>
        <mxCell id="ZWdwFOyI-Ob9fIk1LWZF-20" value="" style="edgeStyle=orthogonalEdgeStyle;rounded=0;orthogonalLoop=1;jettySize=auto;html=1;" edge="1" parent="1" source="ZWdwFOyI-Ob9fIk1LWZF-17" target="ZWdwFOyI-Ob9fIk1LWZF-19">
          <mxGeometry relative="1" as="geometry" />
        </mxCell>
        <mxCell id="ZWdwFOyI-Ob9fIk1LWZF-17" value="&quot;Desea su impresion a color? (S/N)&quot;" style="shape=document;whiteSpace=wrap;html=1;boundedLbl=1;size=0.125;" vertex="1" parent="1">
          <mxGeometry x="565" y="150" width="120" height="50" as="geometry" />
        </mxCell>
        <mxCell id="ZWdwFOyI-Ob9fIk1LWZF-22" value="" style="edgeStyle=orthogonalEdgeStyle;rounded=0;orthogonalLoop=1;jettySize=auto;html=1;" edge="1" parent="1" source="ZWdwFOyI-Ob9fIk1LWZF-19" target="ZWdwFOyI-Ob9fIk1LWZF-21">
          <mxGeometry relative="1" as="geometry" />
        </mxCell>
        <mxCell id="ZWdwFOyI-Ob9fIk1LWZF-19" value="opcion" style="shape=parallelogram;perimeter=parallelogramPerimeter;whiteSpace=wrap;html=1;fixedSize=1;" vertex="1" parent="1">
          <mxGeometry x="582.5" y="220" width="85" height="30" as="geometry" />
        </mxCell>
        <mxCell id="ZWdwFOyI-Ob9fIk1LWZF-23" style="edgeStyle=orthogonalEdgeStyle;rounded=0;orthogonalLoop=1;jettySize=auto;html=1;" edge="1" parent="1" source="ZWdwFOyI-Ob9fIk1LWZF-21" target="ZWdwFOyI-Ob9fIk1LWZF-24">
          <mxGeometry relative="1" as="geometry">
            <mxPoint x="730" y="380" as="targetPoint" />
          </mxGeometry>
        </mxCell>
        <mxCell id="ZWdwFOyI-Ob9fIk1LWZF-26" style="edgeStyle=orthogonalEdgeStyle;rounded=0;orthogonalLoop=1;jettySize=auto;html=1;entryX=0.5;entryY=0;entryDx=0;entryDy=0;" edge="1" parent="1" source="ZWdwFOyI-Ob9fIk1LWZF-21" target="ZWdwFOyI-Ob9fIk1LWZF-25">
          <mxGeometry relative="1" as="geometry" />
        </mxCell>
        <mxCell id="ZWdwFOyI-Ob9fIk1LWZF-21" value="opcion = &#39;S&#39;" style="rhombus;whiteSpace=wrap;html=1;" vertex="1" parent="1">
          <mxGeometry x="585" y="280" width="80" height="80" as="geometry" />
        </mxCell>
        <mxCell id="ZWdwFOyI-Ob9fIk1LWZF-29" style="edgeStyle=orthogonalEdgeStyle;rounded=0;orthogonalLoop=1;jettySize=auto;html=1;entryX=1;entryY=0.5;entryDx=0;entryDy=0;" edge="1" parent="1" source="ZWdwFOyI-Ob9fIk1LWZF-24" target="ZWdwFOyI-Ob9fIk1LWZF-28">
          <mxGeometry relative="1" as="geometry">
            <Array as="points">
              <mxPoint x="760" y="525" />
            </Array>
          </mxGeometry>
        </mxCell>
        <mxCell id="ZWdwFOyI-Ob9fIk1LWZF-24" value="impresionAColor = true" style="rounded=0;whiteSpace=wrap;html=1;" vertex="1" parent="1">
          <mxGeometry x="690" y="390" width="120" height="60" as="geometry" />
        </mxCell>
        <mxCell id="ZWdwFOyI-Ob9fIk1LWZF-27" style="edgeStyle=orthogonalEdgeStyle;rounded=0;orthogonalLoop=1;jettySize=auto;html=1;" edge="1" parent="1" source="ZWdwFOyI-Ob9fIk1LWZF-25" target="ZWdwFOyI-Ob9fIk1LWZF-28">
          <mxGeometry relative="1" as="geometry">
            <mxPoint x="550" y="530" as="targetPoint" />
            <Array as="points">
              <mxPoint x="522" y="525" />
            </Array>
          </mxGeometry>
        </mxCell>
        <mxCell id="ZWdwFOyI-Ob9fIk1LWZF-25" value="impresionAColor = false" style="rounded=0;whiteSpace=wrap;html=1;" vertex="1" parent="1">
          <mxGeometry x="462.5" y="390" width="120" height="60" as="geometry" />
        </mxCell>
        <mxCell id="ZWdwFOyI-Ob9fIk1LWZF-33" value="" style="edgeStyle=orthogonalEdgeStyle;rounded=0;orthogonalLoop=1;jettySize=auto;html=1;" edge="1" parent="1" source="ZWdwFOyI-Ob9fIk1LWZF-28" target="ZWdwFOyI-Ob9fIk1LWZF-32">
          <mxGeometry relative="1" as="geometry" />
        </mxCell>
        <mxCell id="ZWdwFOyI-Ob9fIk1LWZF-28" value="" style="ellipse;whiteSpace=wrap;html=1;aspect=fixed;" vertex="1" parent="1">
          <mxGeometry x="610" y="500" width="50" height="50" as="geometry" />
        </mxCell>
        <mxCell id="ZWdwFOyI-Ob9fIk1LWZF-32" value="" style="ellipse;whiteSpace=wrap;html=1;" vertex="1" parent="1">
          <mxGeometry x="595" y="600" width="80" height="40" as="geometry" />
        </mxCell>
      </root>
    </mxGraphModel>
  </diagram>
  <diagram id="mmUyZyEuCJJCZ-OKWbN7" name="lse-a-lseo">
    <mxGraphModel grid="1" page="1" gridSize="10" guides="1" tooltips="1" connect="1" arrows="1" fold="1" pageScale="1" pageWidth="827" pageHeight="1169" math="0" shadow="0">
      <root>
        <mxCell id="0" />
        <mxCell id="1" parent="0" />
        <mxCell id="y2sZV5zGI5EvL7dA-naG-1" value="&lt;h1 style=&quot;margin-top: 0px;&quot;&gt;Enunciado&lt;/h1&gt;&lt;p&gt;Dada una LSE, insertar sus elementos en una LSEO&lt;/p&gt;&lt;p&gt;Suponga que tiene una LSE precargada con referencia listaSimple.&lt;/p&gt;&lt;p&gt;Suponga que la LSEO ya esta instanciada con referencia listaOrdenada.&lt;br&gt;&lt;/p&gt;" style="text;html=1;whiteSpace=wrap;overflow=hidden;rounded=0;" vertex="1" parent="1">
          <mxGeometry x="40" y="40" width="320" height="160" as="geometry" />
        </mxCell>
        <mxCell id="y2sZV5zGI5EvL7dA-naG-5" value="" style="edgeStyle=orthogonalEdgeStyle;rounded=0;orthogonalLoop=1;jettySize=auto;html=1;" edge="1" parent="1" source="y2sZV5zGI5EvL7dA-naG-3" target="y2sZV5zGI5EvL7dA-naG-7">
          <mxGeometry relative="1" as="geometry">
            <mxPoint x="420" y="240" as="targetPoint" />
          </mxGeometry>
        </mxCell>
        <mxCell id="y2sZV5zGI5EvL7dA-naG-3" value="" style="ellipse;whiteSpace=wrap;html=1;" vertex="1" parent="1">
          <mxGeometry x="360" y="160" width="120" height="40" as="geometry" />
        </mxCell>
        <mxCell id="y2sZV5zGI5EvL7dA-naG-9" value="" style="edgeStyle=orthogonalEdgeStyle;rounded=0;orthogonalLoop=1;jettySize=auto;html=1;" edge="1" parent="1" source="y2sZV5zGI5EvL7dA-naG-7" target="y2sZV5zGI5EvL7dA-naG-8">
          <mxGeometry relative="1" as="geometry" />
        </mxCell>
        <mxCell id="y2sZV5zGI5EvL7dA-naG-7" value="p = listaSimple.inicio()" style="shape=process;whiteSpace=wrap;html=1;backgroundOutline=1;" vertex="1" parent="1">
          <mxGeometry x="340" y="240" width="160" height="60" as="geometry" />
        </mxCell>
        <mxCell id="y2sZV5zGI5EvL7dA-naG-10" style="edgeStyle=orthogonalEdgeStyle;rounded=0;orthogonalLoop=1;jettySize=auto;html=1;" edge="1" parent="1" source="y2sZV5zGI5EvL7dA-naG-8" target="y2sZV5zGI5EvL7dA-naG-11">
          <mxGeometry relative="1" as="geometry">
            <mxPoint x="600" y="450" as="targetPoint" />
          </mxGeometry>
        </mxCell>
        <mxCell id="y2sZV5zGI5EvL7dA-naG-17" value="" style="edgeStyle=orthogonalEdgeStyle;rounded=0;orthogonalLoop=1;jettySize=auto;html=1;" edge="1" parent="1" source="y2sZV5zGI5EvL7dA-naG-8" target="y2sZV5zGI5EvL7dA-naG-16">
          <mxGeometry relative="1" as="geometry" />
        </mxCell>
        <mxCell id="y2sZV5zGI5EvL7dA-naG-8" value="p != null" style="rhombus;whiteSpace=wrap;html=1;" vertex="1" parent="1">
          <mxGeometry x="380" y="340" width="80" height="80" as="geometry" />
        </mxCell>
        <mxCell id="y2sZV5zGI5EvL7dA-naG-13" value="" style="edgeStyle=orthogonalEdgeStyle;rounded=0;orthogonalLoop=1;jettySize=auto;html=1;" edge="1" parent="1" source="y2sZV5zGI5EvL7dA-naG-11" target="y2sZV5zGI5EvL7dA-naG-12">
          <mxGeometry relative="1" as="geometry" />
        </mxCell>
        <mxCell id="y2sZV5zGI5EvL7dA-naG-11" value="listaOrdenada.insertar(p.dato)" style="shape=process;whiteSpace=wrap;html=1;backgroundOutline=1;" vertex="1" parent="1">
          <mxGeometry x="480" y="430" width="240" height="60" as="geometry" />
        </mxCell>
        <mxCell id="y2sZV5zGI5EvL7dA-naG-14" style="edgeStyle=orthogonalEdgeStyle;rounded=0;orthogonalLoop=1;jettySize=auto;html=1;exitX=0.5;exitY=1;exitDx=0;exitDy=0;" edge="1" parent="1" source="y2sZV5zGI5EvL7dA-naG-12">
          <mxGeometry relative="1" as="geometry">
            <mxPoint x="430" y="320" as="targetPoint" />
            <Array as="points">
              <mxPoint x="600" y="580" />
              <mxPoint x="760" y="580" />
              <mxPoint x="760" y="320" />
            </Array>
          </mxGeometry>
        </mxCell>
        <mxCell id="y2sZV5zGI5EvL7dA-naG-12" value="p = p.ps" style="whiteSpace=wrap;html=1;" vertex="1" parent="1">
          <mxGeometry x="540" y="524" width="120" height="36" as="geometry" />
        </mxCell>
        <mxCell id="y2sZV5zGI5EvL7dA-naG-16" value="" style="ellipse;whiteSpace=wrap;html=1;" vertex="1" parent="1">
          <mxGeometry x="330" y="490" width="80" height="50" as="geometry" />
        </mxCell>
      </root>
    </mxGraphModel>
  </diagram>
  <diagram id="6eg0xWmeCKtUNBRQCPOP" name="do-while">
    <mxGraphModel grid="1" page="1" gridSize="10" guides="1" tooltips="1" connect="1" arrows="1" fold="1" pageScale="1" pageWidth="827" pageHeight="1169" math="0" shadow="0">
      <root>
        <mxCell id="0" />
        <mxCell id="1" parent="0" />
        <mxCell id="vsy_AS1KvvB51Rneix9G-2" style="edgeStyle=orthogonalEdgeStyle;rounded=0;orthogonalLoop=1;jettySize=auto;html=1;" edge="1" parent="1" source="vsy_AS1KvvB51Rneix9G-1" target="vsy_AS1KvvB51Rneix9G-3">
          <mxGeometry relative="1" as="geometry">
            <mxPoint x="230" y="250" as="targetPoint" />
          </mxGeometry>
        </mxCell>
        <mxCell id="vsy_AS1KvvB51Rneix9G-1" value="" style="ellipse;whiteSpace=wrap;html=1;" vertex="1" parent="1">
          <mxGeometry x="170" y="30" width="120" height="80" as="geometry" />
        </mxCell>
        <mxCell id="vsy_AS1KvvB51Rneix9G-5" value="" style="edgeStyle=orthogonalEdgeStyle;rounded=0;orthogonalLoop=1;jettySize=auto;html=1;" edge="1" parent="1" source="vsy_AS1KvvB51Rneix9G-3" target="vsy_AS1KvvB51Rneix9G-4">
          <mxGeometry relative="1" as="geometry" />
        </mxCell>
        <mxCell id="vsy_AS1KvvB51Rneix9G-3" value="accion()" style="shape=process;whiteSpace=wrap;html=1;backgroundOutline=1;" vertex="1" parent="1">
          <mxGeometry x="170" y="180" width="120" height="60" as="geometry" />
        </mxCell>
        <mxCell id="vsy_AS1KvvB51Rneix9G-7" style="edgeStyle=orthogonalEdgeStyle;rounded=0;orthogonalLoop=1;jettySize=auto;html=1;" edge="1" parent="1" source="vsy_AS1KvvB51Rneix9G-4">
          <mxGeometry relative="1" as="geometry">
            <mxPoint x="240" y="130" as="targetPoint" />
            <Array as="points">
              <mxPoint x="440" y="340" />
              <mxPoint x="440" y="130" />
            </Array>
          </mxGeometry>
        </mxCell>
        <mxCell id="vsy_AS1KvvB51Rneix9G-8" style="edgeStyle=orthogonalEdgeStyle;rounded=0;orthogonalLoop=1;jettySize=auto;html=1;" edge="1" parent="1" source="vsy_AS1KvvB51Rneix9G-4" target="vsy_AS1KvvB51Rneix9G-9">
          <mxGeometry relative="1" as="geometry">
            <mxPoint x="190" y="460" as="targetPoint" />
          </mxGeometry>
        </mxCell>
        <mxCell id="vsy_AS1KvvB51Rneix9G-4" value="condicion" style="rhombus;whiteSpace=wrap;html=1;" vertex="1" parent="1">
          <mxGeometry x="190" y="300" width="80" height="80" as="geometry" />
        </mxCell>
        <mxCell id="vsy_AS1KvvB51Rneix9G-9" value="" style="ellipse;whiteSpace=wrap;html=1;" vertex="1" parent="1">
          <mxGeometry x="130" y="430" width="120" height="80" as="geometry" />
        </mxCell>
        <mxCell id="vsy_AS1KvvB51Rneix9G-10" value="V" style="text;html=1;align=center;verticalAlign=middle;whiteSpace=wrap;rounded=0;" vertex="1" parent="1">
          <mxGeometry x="260" y="300" width="60" height="30" as="geometry" />
        </mxCell>
        <mxCell id="vsy_AS1KvvB51Rneix9G-11" value="F" style="text;html=1;align=center;verticalAlign=middle;whiteSpace=wrap;rounded=0;" vertex="1" parent="1">
          <mxGeometry x="170" y="370" width="60" height="30" as="geometry" />
        </mxCell>
      </root>
    </mxGraphModel>
  </diagram>
</mxfile>
